<svg width="319" height="72" fill="none" xmlns="http://www.w3.org/2000/svg"><rect x=".501" width="318" height="72" rx="14" fill="#199976"/><g clip-path="url(#a)"><path d="M51.245 31.314c-1.966 1.215-3.18 3.298-3.18 5.612 0 2.604 1.561 4.976 3.932 5.96a15.459 15.459 0 0 1-2.024 4.166c-1.272 1.793-2.602 3.645-4.569 3.645-1.966 0-2.544-1.157-4.858-1.157-2.255 0-3.065 1.215-4.915 1.215s-3.123-1.678-4.569-3.761c-1.908-2.893-3.007-6.25-3.065-9.779 0-5.728 3.701-8.794 7.403-8.794 1.966 0 3.585 1.273 4.8 1.273 1.156 0 3.007-1.331 5.204-1.331a6.903 6.903 0 0 1 5.841 2.95Zm-6.882-5.381c.983-1.157 1.504-2.604 1.562-4.108 0-.174 0-.405-.058-.579a6.647 6.647 0 0 0-4.337 2.257 6.317 6.317 0 0 0-1.62 3.992c0 .174 0 .347.058.52.116 0 .29.059.405.059 1.561-.116 3.007-.926 3.99-2.141Z" fill="#fff"/></g><path d="M65.86 43V28.908h5.088c4.18 0 6.631 2.578 6.631 7.002v.02c0 4.472-2.431 7.07-6.63 7.07H65.86Zm2.188-1.885h2.656c2.95 0 4.649-1.885 4.649-5.156v-.02c0-3.242-1.729-5.146-4.649-5.146h-2.656v10.322Zm16.748 2.09c-3.115 0-5.02-2.08-5.02-5.498v-.02c0-3.408 1.914-5.497 5.02-5.497 3.096 0 5.01 2.08 5.01 5.498v.019c0 3.418-1.905 5.498-5.01 5.498Zm0-1.767c1.816 0 2.851-1.387 2.851-3.731v-.02c0-2.353-1.035-3.73-2.851-3.73-1.826 0-2.852 1.377-2.852 3.73v.02c0 2.353 1.026 3.73 2.852 3.73ZM93.966 43l-2.93-10.605h2.129l1.904 8.183h.157l2.187-8.184h2.012l2.187 8.184h.166l1.895-8.184h2.099L102.853 43h-2.178l-2.197-7.91h-.166L96.123 43h-2.158Zm13.974 0V32.395h2.12v1.61h.156c.517-1.132 1.533-1.816 3.076-1.816 2.373 0 3.682 1.416 3.682 3.946V43h-2.11v-6.367c0-1.758-.732-2.627-2.285-2.627-1.553 0-2.519 1.064-2.519 2.773V43h-2.12Zm12.09 0V28.234h2.119V43h-2.119Zm9.766.205c-3.115 0-5.02-2.08-5.02-5.498v-.02c0-3.408 1.914-5.497 5.02-5.497 3.096 0 5.01 2.08 5.01 5.498v.019c0 3.418-1.905 5.498-5.01 5.498Zm0-1.767c1.816 0 2.851-1.387 2.851-3.731v-.02c0-2.353-1.035-3.73-2.851-3.73-1.826 0-2.852 1.377-2.852 3.73v.02c0 2.353 1.026 3.73 2.852 3.73Zm10.449 1.738c-2.021 0-3.516-1.23-3.516-3.154v-.02c0-1.895 1.426-2.998 3.956-3.154l2.871-.166v-.938c0-1.162-.733-1.806-2.168-1.806-1.172 0-1.944.43-2.198 1.181l-.009.04h-2.041l.009-.07c.254-1.737 1.924-2.9 4.336-2.9 2.666 0 4.17 1.329 4.17 3.555V43h-2.099v-1.504h-.166c-.625 1.074-1.739 1.68-3.145 1.68Zm-1.406-3.242c0 .976.83 1.552 1.973 1.552 1.582 0 2.744-1.035 2.744-2.402v-.908l-2.588.166c-1.465.088-2.129.615-2.129 1.572v.02Zm13.672 3.242c-2.666 0-4.395-2.139-4.395-5.469v-.02c0-3.359 1.699-5.478 4.395-5.478 1.455 0 2.695.723 3.261 1.865h.166v-5.84h2.11V43h-2.11v-1.67h-.166c-.615 1.162-1.777 1.846-3.261 1.846Zm.605-1.807c1.768 0 2.852-1.396 2.852-3.662v-.02c0-2.265-1.094-3.662-2.852-3.662-1.777 0-2.842 1.387-2.842 3.663v.019c0 2.275 1.065 3.662 2.842 3.662Zm18.047 1.836c-3.115 0-5.019-2.08-5.019-5.498v-.02c0-3.408 1.914-5.497 5.019-5.497 3.096 0 5.01 2.08 5.01 5.498v.019c0 3.418-1.904 5.498-5.01 5.498Zm0-1.767c1.816 0 2.852-1.387 2.852-3.731v-.02c0-2.353-1.036-3.73-2.852-3.73-1.826 0-2.851 1.377-2.851 3.73v.02c0 2.353 1.025 3.73 2.851 3.73ZM178.702 43V32.395h2.119v1.61h.157c.517-1.132 1.533-1.816 3.076-1.816 2.373 0 3.681 1.416 3.681 3.946V43h-2.109v-6.367c0-1.758-.732-2.627-2.285-2.627-1.553 0-2.52 1.064-2.52 2.773V43h-2.119Zm16.621 0 5.088-14.092h2.363L207.862 43h-2.304l-1.27-3.809h-5.391L197.618 43h-2.295Zm6.182-11.621-2.022 6.055h4.219l-2.031-6.055h-.166Zm8.564 15.156v-14.14h2.119v1.67h.157c.615-1.163 1.777-1.856 3.261-1.856 2.676 0 4.395 2.139 4.395 5.478v.02c0 3.36-1.699 5.469-4.395 5.469-1.455 0-2.695-.713-3.261-1.856h-.157v5.215h-2.119Zm4.942-5.166c1.767 0 2.832-1.387 2.832-3.662v-.02c0-2.285-1.065-3.662-2.832-3.662-1.768 0-2.862 1.397-2.862 3.663v.019c0 2.266 1.094 3.662 2.862 3.662Zm7.539 5.166v-14.14h2.119v1.67h.156c.615-1.163 1.778-1.856 3.262-1.856 2.676 0 4.394 2.139 4.394 5.478v.02c0 3.36-1.699 5.469-4.394 5.469-1.455 0-2.695-.713-3.262-1.856h-.156v5.215h-2.119Zm4.941-5.166c1.768 0 2.832-1.387 2.832-3.662v-.02c0-2.285-1.064-3.662-2.832-3.662-1.767 0-2.861 1.397-2.861 3.663v.019c0 2.266 1.094 3.662 2.861 3.662Zm18.018 1.973c-3.184 0-5.225-1.611-5.42-3.985l-.01-.127h2.149l.009.108c.117 1.28 1.475 2.1 3.36 2.1 1.797 0 3.076-.899 3.076-2.208v-.01c0-1.083-.762-1.786-2.627-2.187l-1.543-.332c-2.861-.605-4.092-1.933-4.092-4.014v-.01c.01-2.43 2.119-4.11 5.108-4.11 2.988 0 4.941 1.689 5.097 3.876l.01.137h-2.119l-.02-.127c-.185-1.152-1.289-1.992-2.998-1.982-1.65 0-2.871.771-2.871 2.1v.01c0 1.044.742 1.728 2.569 2.118l1.533.342c2.959.635 4.17 1.826 4.17 3.916v.01c0 2.695-2.1 4.375-5.381 4.375Zm12.021-.274c-2.334 0-3.291-.82-3.291-2.861v-6.142h-1.66v-1.67h1.66v-2.676h2.158v2.675h2.276v1.67h-2.276V39.7c0 1.143.43 1.611 1.475 1.611.322 0 .508-.01.801-.038v1.689a6.79 6.79 0 0 1-1.143.107Zm7.989.137c-3.116 0-5.02-2.08-5.02-5.498v-.02c0-3.408 1.914-5.497 5.02-5.497 3.095 0 5.009 2.08 5.009 5.498v.019c0 3.418-1.904 5.498-5.009 5.498Zm0-1.767c1.816 0 2.851-1.387 2.851-3.731v-.02c0-2.353-1.035-3.73-2.851-3.73-1.827 0-2.852 1.377-2.852 3.73v.02c0 2.353 1.025 3.73 2.852 3.73ZM273.058 43V32.395h2.119v1.601h.156c.381-1.123 1.367-1.787 2.783-1.787.342 0 .713.049.928.098v1.953a5.53 5.53 0 0 0-1.143-.127c-1.621 0-2.724.996-2.724 2.53V43h-2.119Zm12.187.205c-3.105 0-4.98-2.12-4.98-5.478v-.01c0-3.31 1.914-5.527 4.873-5.527 2.959 0 4.775 2.138 4.775 5.322v.742h-7.519c.039 2.031 1.152 3.213 2.9 3.213 1.357 0 2.168-.674 2.422-1.22l.039-.079 2.041-.01-.02.088c-.351 1.397-1.816 2.96-4.531 2.96Zm-.098-9.277c-1.445 0-2.539.986-2.724 2.812h5.39c-.166-1.894-1.23-2.812-2.666-2.812Z" fill="#fff"/><defs><clipPath id="a"><path fill="#fff" transform="translate(28.001 21.246)" d="M0 0h24v29.508H0z"/></clipPath></defs></svg>