<svg width="89" height="34" fill="none" xmlns="http://www.w3.org/2000/svg"><rect x=".472" y=".752" width="88.055" height="32.055" rx="16.027" fill="#199976" fill-opacity=".2"/><path d="M19.28 21.28v-9.455h6.057v1.436h-4.344v2.567h3.929v1.435h-3.93v4.017H19.28Zm10.116.138c-.692 0-1.293-.152-1.8-.457a3.103 3.103 0 0 1-1.182-1.278c-.277-.548-.416-1.189-.416-1.921 0-.733.139-1.374.416-1.925.28-.55.674-.979 1.182-1.283.507-.305 1.108-.457 1.8-.457s1.293.152 1.8.457c.508.304.9.732 1.178 1.283.28.55.42 1.192.42 1.925 0 .732-.14 1.373-.42 1.92-.277.548-.67.975-1.178 1.28-.507.304-1.108.456-1.8.456Zm.01-1.338c.375 0 .689-.104.941-.31.252-.21.44-.49.563-.84.126-.35.19-.742.19-1.173a3.46 3.46 0 0 0-.19-1.177 1.863 1.863 0 0 0-.563-.845c-.252-.209-.566-.313-.942-.313-.384 0-.704.104-.96.313-.252.21-.442.491-.568.845a3.54 3.54 0 0 0-.184 1.177c0 .431.061.822.184 1.173.126.35.316.63.568.84.256.206.576.31.96.31Zm4.806 1.2v-7.091h1.62v1.182h.074c.13-.41.351-.725.665-.947a1.83 1.83 0 0 1 1.085-.337c.092 0 .196.005.31.014.116.006.213.017.29.032v1.538a1.753 1.753 0 0 0-.337-.065 3.107 3.107 0 0 0-.438-.032c-.305 0-.579.066-.822.198-.24.13-.43.31-.568.54-.138.231-.208.497-.208.8v4.168h-1.67Zm8.453 0v-9.455h3.545c.727 0 1.336.126 1.828.379.496.252.87.606 1.122 1.062.256.452.384.98.384 1.583 0 .606-.13 1.133-.388 1.579a2.56 2.56 0 0 1-1.131 1.03c-.499.24-1.111.36-1.838.36h-2.525v-1.422h2.294c.425 0 .773-.059 1.044-.176.27-.12.47-.294.6-.521.132-.231.198-.514.198-.85 0-.335-.066-.622-.198-.859a1.263 1.263 0 0 0-.605-.544c-.27-.127-.62-.19-1.048-.19h-1.57v8.024h-1.712Zm4.884-4.284 2.34 4.284h-1.91l-2.3-4.284h1.87Zm6.535 4.422c-.711 0-1.325-.147-1.842-.443a3.002 3.002 0 0 1-1.187-1.265c-.277-.548-.415-1.192-.415-1.934 0-.73.138-1.37.415-1.92.28-.555.671-.985 1.173-1.293.502-.311 1.091-.466 1.768-.466.437 0 .85.07 1.237.212.391.138.736.354 1.034.646.302.293.539.665.711 1.117.173.45.259.985.259 1.607v.512h-5.812v-1.126h4.21a1.797 1.797 0 0 0-.208-.854 1.51 1.51 0 0 0-.568-.596 1.596 1.596 0 0 0-.84-.217c-.341 0-.642.084-.9.25-.259.163-.46.378-.605.646a1.86 1.86 0 0 0-.217.872v.984c0 .412.076.766.226 1.062.151.292.362.517.633.674.27.154.588.23.95.23.244 0 .464-.033.661-.101.197-.07.368-.174.512-.31.145-.135.254-.303.328-.503l1.56.176a2.433 2.433 0 0 1-.563 1.08 2.747 2.747 0 0 1-1.052.711c-.428.166-.917.25-1.468.25Zm6.238-4.293v4.155H58.65v-7.091h1.597v1.205h.083c.163-.397.423-.713.78-.947.36-.233.805-.35 1.334-.35.49 0 .916.104 1.28.314.365.209.649.512.849.909.203.397.303.879.3 1.445v4.515h-1.671v-4.257c0-.474-.124-.844-.37-1.112-.243-.268-.58-.402-1.01-.402-.293 0-.553.065-.781.194-.225.126-.402.31-.53.55-.127.24-.19.53-.19.872Zm9.791-2.936v1.293h-4.076v-1.293h4.076Zm-3.07-1.699h1.672v6.657c0 .225.033.397.101.517.07.117.163.197.277.24.114.043.24.065.379.065.104 0 .2-.008.286-.023.09-.016.157-.03.203-.042l.282 1.306c-.09.031-.217.065-.383.102a3.137 3.137 0 0 1-.6.065 2.727 2.727 0 0 1-1.132-.19 1.76 1.76 0 0 1-.798-.655c-.194-.296-.29-.665-.287-1.108V12.49Z" fill="#199976"/><rect x=".472" y=".752" width="88.055" height="32.055" rx="16.027" stroke="#199976" stroke-width=".945"/></svg>