<svg width="319" height="72" fill="none" xmlns="http://www.w3.org/2000/svg"><rect x=".501" width="317.998" height="72" rx="14" fill="#199976"/><path d="M16.987 20.794c-.364.364-.486.972-.486 1.7V49.34c0 .729.243 1.336.607 1.7l.122.122L32.293 36.1v-.242L16.987 20.794Z" fill="url(#a)"/><path d="m37.15 41.202-4.981-4.98v-.365l4.98-4.98.122.12 5.952 3.402c1.7.972 1.7 2.551 0 3.523l-6.074 3.28Z" fill="url(#b)"/><path d="m37.272 41.08-5.102-5.102-15.185 15.184c.608.608 1.458.608 2.551.122L37.272 41.08Z" fill="url(#c)"/><path d="M37.272 30.876 19.536 20.794c-1.093-.607-1.943-.486-2.55.122L32.17 35.978l5.102-5.102Z" fill="url(#d)"/><path opacity=".2" d="m37.15 40.959-17.614 9.96c-.972.608-1.822.487-2.43 0l-.12.122.12.122c.608.485 1.458.607 2.43 0L37.15 40.959Z" fill="#000"/><path opacity=".12" d="M16.987 50.92c-.364-.365-.486-.972-.486-1.701v.121c0 .73.243 1.337.607 1.701v-.121h-.121Zm26.238-13.362-6.073 3.4.121.122 5.952-3.401c.85-.486 1.215-1.093 1.215-1.7 0 .607-.486 1.093-1.215 1.579Z" fill="#000"/><path opacity=".25" d="m19.538 20.916 23.687 13.483c.73.486 1.215.972 1.215 1.58 0-.608-.364-1.215-1.215-1.701L19.538 20.794c-1.7-.972-3.037-.243-3.037 1.7v.122c0-1.822 1.336-2.672 3.037-1.7Z" fill="#fff"/><path d="M58.698 43V28.908h5.088c4.18 0 6.63 2.578 6.63 7.002v.02c0 4.472-2.431 7.07-6.63 7.07h-5.088Zm2.187-1.885h2.657c2.949 0 4.648-1.885 4.648-5.156v-.02c0-3.242-1.729-5.146-4.648-5.146h-2.657v10.322Zm16.748 2.09c-3.115 0-5.02-2.08-5.02-5.498v-.02c0-3.408 1.915-5.497 5.02-5.497 3.096 0 5.01 2.08 5.01 5.498v.019c0 3.418-1.904 5.498-5.01 5.498Zm0-1.767c1.817 0 2.852-1.387 2.852-3.731v-.02c0-2.353-1.035-3.73-2.852-3.73-1.826 0-2.851 1.377-2.851 3.73v.02c0 2.353 1.025 3.73 2.851 3.73ZM86.803 43l-2.93-10.605h2.13l1.904 8.183h.156l2.188-8.184h2.011l2.188 8.184h.166l1.894-8.184h2.1L95.69 43h-2.178l-2.197-7.91h-.166L88.96 43h-2.158Zm13.975 0V32.395h2.119v1.61h.156c.518-1.132 1.533-1.816 3.076-1.816 2.373 0 3.682 1.416 3.682 3.946V43h-2.109v-6.367c0-1.758-.733-2.627-2.285-2.627-1.553 0-2.52 1.064-2.52 2.773V43h-2.119Zm12.09 0V28.234h2.119V43h-2.119Zm9.765.205c-3.115 0-5.019-2.08-5.019-5.498v-.02c0-3.408 1.914-5.497 5.019-5.497 3.096 0 5.01 2.08 5.01 5.498v.019c0 3.418-1.904 5.498-5.01 5.498Zm0-1.767c1.817 0 2.852-1.387 2.852-3.731v-.02c0-2.353-1.035-3.73-2.852-3.73-1.826 0-2.851 1.377-2.851 3.73v.02c0 2.353 1.025 3.73 2.851 3.73Zm10.45 1.738c-2.022 0-3.516-1.23-3.516-3.154v-.02c0-1.895 1.426-2.998 3.955-3.154l2.871-.166v-.938c0-1.162-.732-1.806-2.168-1.806-1.172 0-1.943.43-2.197 1.181l-.01.04h-2.041l.01-.07c.254-1.737 1.924-2.9 4.336-2.9 2.666 0 4.17 1.329 4.17 3.555V43h-2.1v-1.504h-.166c-.625 1.074-1.738 1.68-3.144 1.68Zm-1.407-3.242c0 .976.83 1.552 1.973 1.552 1.582 0 2.744-1.035 2.744-2.402v-.908l-2.588.166c-1.465.088-2.129.615-2.129 1.572v.02Zm13.672 3.242c-2.666 0-4.394-2.139-4.394-5.469v-.02c0-3.359 1.699-5.478 4.394-5.478 1.455 0 2.695.723 3.262 1.865h.166v-5.84h2.109V43h-2.109v-1.67h-.166c-.615 1.162-1.777 1.846-3.262 1.846Zm.606-1.807c1.767 0 2.851-1.396 2.851-3.662v-.02c0-2.265-1.094-3.662-2.851-3.662-1.778 0-2.842 1.387-2.842 3.663v.019c0 2.275 1.064 3.662 2.842 3.662ZM164 43.205c-3.115 0-5.019-2.08-5.019-5.498v-.02c0-3.408 1.914-5.497 5.019-5.497 3.096 0 5.01 2.08 5.01 5.498v.019c0 3.418-1.904 5.498-5.01 5.498Zm0-1.767c1.817 0 2.852-1.387 2.852-3.731v-.02c0-2.353-1.035-3.73-2.852-3.73-1.826 0-2.851 1.377-2.851 3.73v.02c0 2.353 1.025 3.73 2.851 3.73ZM171.54 43V32.395h2.119v1.61h.156c.518-1.132 1.533-1.816 3.076-1.816 2.373 0 3.682 1.416 3.682 3.946V43h-2.11v-6.367c0-1.758-.732-2.627-2.285-2.627-1.553 0-2.519 1.064-2.519 2.773V43h-2.119Zm23.642.342c-3.994 0-6.514-2.852-6.514-7.383v-.02c0-4.472 2.549-7.373 6.495-7.373 3.203 0 5.478 1.817 5.986 4.541l.019.098h-2.187l-.029-.098c-.508-1.67-1.856-2.607-3.789-2.607-2.608 0-4.258 2.11-4.258 5.43v.02c0 3.368 1.66 5.458 4.306 5.458 2.305 0 3.877-1.455 3.897-3.623v-.312h-3.623v-1.768h5.781v1.748c0 3.574-2.392 5.889-6.084 5.889Zm13.35-.137c-3.115 0-5.02-2.08-5.02-5.498v-.02c0-3.408 1.914-5.497 5.02-5.497 3.095 0 5.01 2.08 5.01 5.498v.019c0 3.418-1.905 5.498-5.01 5.498Zm0-1.767c1.816 0 2.851-1.387 2.851-3.731v-.02c0-2.353-1.035-3.73-2.851-3.73-1.826 0-2.852 1.377-2.852 3.73v.02c0 2.353 1.026 3.73 2.852 3.73Zm12.031 1.767c-3.115 0-5.02-2.08-5.02-5.498v-.02c0-3.408 1.915-5.497 5.02-5.497 3.096 0 5.01 2.08 5.01 5.498v.019c0 3.418-1.905 5.498-5.01 5.498Zm0-1.767c1.816 0 2.852-1.387 2.852-3.731v-.02c0-2.353-1.036-3.73-2.852-3.73-1.826 0-2.852 1.377-2.852 3.73v.02c0 2.353 1.026 3.73 2.852 3.73Zm12.021 5.302c-2.695 0-4.355-1.181-4.609-2.949l.02-.02h2.138l.01.02c.176.732 1.035 1.25 2.471 1.25 1.748 0 2.783-.82 2.783-2.266v-2.09h-.156c-.645 1.153-1.817 1.797-3.272 1.797-2.724 0-4.404-2.1-4.404-5.087v-.02c0-3.027 1.689-5.166 4.443-5.166 1.485 0 2.637.732 3.252 1.924h.127v-1.739h2.11v10.391c0 2.412-1.905 3.955-4.913 3.955Zm-.029-6.006c1.797 0 2.881-1.367 2.881-3.35v-.019c0-1.972-1.094-3.36-2.881-3.36-1.806 0-2.822 1.388-2.822 3.36v.02c0 1.972 1.016 3.35 2.822 3.35ZM240.641 43V28.234h2.119V43h-2.119Zm9.727.205c-3.106 0-4.981-2.12-4.981-5.478v-.01c0-3.31 1.914-5.527 4.873-5.527 2.959 0 4.776 2.138 4.776 5.322v.742h-7.52c.039 2.031 1.152 3.213 2.901 3.213 1.357 0 2.167-.674 2.421-1.22l.039-.079 2.041-.01-.019.088c-.352 1.397-1.816 2.96-4.531 2.96Zm-.098-9.277c-1.445 0-2.539.986-2.725 2.812h5.391c-.166-1.894-1.23-2.812-2.666-2.812ZM263.268 43V28.908h5.488c2.764 0 4.678 1.856 4.678 4.62v.019c0 2.754-1.914 4.639-4.678 4.639h-3.3V43h-2.188Zm4.941-12.246h-2.753v5.596h2.753c1.895 0 2.999-1.026 2.999-2.793v-.02c0-1.758-1.104-2.783-2.999-2.783ZM276.11 43V28.234h2.119V43h-2.119Zm8.183.176c-2.021 0-3.515-1.23-3.515-3.154v-.02c0-1.895 1.426-2.998 3.955-3.154l2.871-.166v-.938c0-1.162-.732-1.806-2.168-1.806-1.172 0-1.943.43-2.197 1.181l-.01.04h-2.041l.01-.07c.254-1.737 1.924-2.9 4.336-2.9 2.666 0 4.17 1.329 4.17 3.555V43h-2.1v-1.504h-.166c-.625 1.074-1.738 1.68-3.145 1.68Zm-1.406-3.242c0 .976.83 1.552 1.973 1.552 1.582 0 2.744-1.035 2.744-2.402v-.908l-2.588.166c-1.465.088-2.129.615-2.129 1.572v.02Zm10.488 6.797a8.41 8.41 0 0 1-.849-.05v-1.67c.205.03.469.04.713.04.986 0 1.582-.42 1.894-1.494l.157-.547-3.848-10.615h2.285l2.656 8.476h.186l2.646-8.477h2.227l-3.945 11.016c-.899 2.53-1.973 3.32-4.122 3.32Z" fill="#fff"/><defs><linearGradient id="a" x1="30.835" y1="22.264" x2="10.448" y2="42.65" gradientUnits="userSpaceOnUse"><stop stop-color="#00A0FF"/><stop offset=".007" stop-color="#00A1FF"/><stop offset=".26" stop-color="#00BEFF"/><stop offset=".512" stop-color="#00D2FF"/><stop offset=".76" stop-color="#00DFFF"/><stop offset="1" stop-color="#00E3FF"/></linearGradient><linearGradient id="b" x1="45.451" y1="35.979" x2="16.058" y2="35.979" gradientUnits="userSpaceOnUse"><stop stop-color="#FFE000"/><stop offset=".409" stop-color="#FFBD00"/><stop offset=".775" stop-color="orange"/><stop offset="1" stop-color="#FF9C00"/></linearGradient><linearGradient id="c" x1="34.51" y1="38.767" x2="6.866" y2="66.412" gradientUnits="userSpaceOnUse"><stop stop-color="#FF3A44"/><stop offset="1" stop-color="#C31162"/></linearGradient><linearGradient id="d" x1="13.216" y1="11.898" x2="25.561" y2="24.243" gradientUnits="userSpaceOnUse"><stop stop-color="#32A071"/><stop offset=".069" stop-color="#2DA771"/><stop offset=".476" stop-color="#15CF74"/><stop offset=".801" stop-color="#06E775"/><stop offset="1" stop-color="#00F076"/></linearGradient></defs></svg>