<svg width="31" height="36" fill="none" xmlns="http://www.w3.org/2000/svg"><path d="m3.312 28.372-3.296-1.91v-.864C.016 20.378.028 15.16 0 9.94c-.004-.68.2-1.046.805-1.39C5.362 5.959 9.9 3.33 14.424.684c.532-.312.929-.299 1.443 0 4.588 2.672 9.187 5.324 13.787 7.976.358.207.638.408.637.897-.014 4.292-.008 8.585-.008 12.981-.265-.104-.47-.16-.65-.26-1.04-.575-2.062-1.178-3.11-1.733-.58-.307-.843-.675-.825-1.386.057-2.278.01-4.558.031-6.837.005-.483-.136-.773-.573-1.022-3.32-1.896-6.623-3.819-10.012-5.78L4.626 11.61c-.012.232-.033.458-.033.683-.003 3.568.016 7.135-.019 10.702-.006.649.188 1.008.751 1.327 3.267 1.854 6.512 3.747 9.814 5.655.636-.368 1.278-.701 1.878-1.098.556-.368 1.015-.417 1.621-.026 1.157.746 2.383 1.385 3.717 2.146-.413.257-.679.43-.953.59-1.852 1.078-3.717 2.134-5.551 3.241-.53.32-.922.293-1.445-.014-3.666-2.155-7.352-4.276-11.094-6.444Z" fill="#199976"/><path d="M25.147 28.055c-3.15-1.811-6.224-3.605-9.324-5.354-.586-.33-.874-.673-.831-1.38.066-1.085.05-2.179.004-3.267-.026-.628.123-1.03.737-1.325.824-.398 1.585-.925 2.506-1.475l-3.12-1.833-3.26 1.884v9.154c-.26-.032-.467-.002-.611-.083-1.29-.73-2.568-1.485-3.855-2.222-.324-.186-.442-.44-.44-.81.01-2.74.012-5.48.001-8.22-.001-.375.136-.615.455-.799 2.398-1.381 4.793-2.768 7.186-4.159.346-.2.653-.211 1.015 0a951.754 951.754 0 0 0 7.195 4.145c.336.192.423.449.418.813-.016 1.32-.027 2.641.004 3.961.011.48-.205.693-.592.905-.942.516-1.857 1.082-2.956 1.73L30.34 25.9c-.703.417-1.23.733-1.76 1.042-.682.4-1.4.748-2.042 1.205-.505.361-.898.292-1.391-.092Z" fill="#199976"/></svg>