<svg width="40" height="46" fill="none" xmlns="http://www.w3.org/2000/svg"><path d="M4.367 36.805.02 34.286v-1.139c0-6.88.017-13.76-.02-20.641-.005-.898.263-1.379 1.062-1.833A1717.445 1717.445 0 0 0 19.016.301c.702-.41 1.225-.393 1.903.002a5005.773 5005.773 0 0 0 18.176 10.514c.472.273.841.538.84 1.182-.019 5.66-.011 11.319-.011 17.115-.349-.138-.62-.212-.858-.344-1.369-.757-2.717-1.553-4.099-2.284-.763-.404-1.111-.89-1.088-1.828.076-3.003.014-6.009.042-9.013.006-.636-.18-1.02-.755-1.348-4.377-2.499-8.733-5.034-13.201-7.619L6.098 14.707c-.015.306-.043.603-.043.9-.003 4.703.022 9.407-.024 14.11-.009.854.246 1.327.99 1.75 4.307 2.443 8.584 4.938 12.938 7.454.839-.485 1.685-.925 2.476-1.448.733-.485 1.338-.55 2.137-.034 1.525.984 3.141 1.826 4.9 2.83-.544.338-.895.567-1.256.777-2.441 1.421-4.9 2.813-7.319 4.273-.697.422-1.215.387-1.905-.019-4.833-2.84-9.692-5.637-14.625-8.495Z" fill="#262626"/><path d="M33.153 36.386c-4.152-2.387-8.205-4.752-12.292-7.058-.773-.436-1.153-.887-1.096-1.819.087-1.43.065-2.873.006-4.306-.035-.83.161-1.358.97-1.748 1.087-.524 2.09-1.219 3.305-1.945l-4.113-2.417c-1.383.8-2.801 1.62-4.298 2.484v12.07c-.344-.042-.617-.003-.806-.11-1.702-.964-3.386-1.958-5.083-2.93-.427-.245-.582-.58-.58-1.067.014-3.612.016-7.225.002-10.837-.002-.495.18-.811.6-1.054 3.162-1.82 6.319-3.65 9.474-5.482.456-.265.86-.28 1.338-.002 3.153 1.837 6.316 3.656 9.485 5.466.444.253.558.591.552 1.072a146.4 146.4 0 0 0 .005 5.222c.015.632-.27.914-.78 1.192-1.243.68-2.449 1.427-3.897 2.282L40 33.546c-.928.55-1.622.966-2.32 1.374-.9.526-1.847.986-2.693 1.589-.666.475-1.184.384-1.834-.123Z" fill="#262626"/></svg>