<svg width="289" height="54" fill="none" xmlns="http://www.w3.org/2000/svg"><path d="m42.342 40.941-4.857-8.4 4.069-7.028 2.374-4.109-2.197-3.8-2.835-4.915-2.405-4.151-4.758-.01-8.14-.02-4.613-.01-8.133-.018-4.772-.012 2.423 4.19 5.243 9.067L2.654 40.904 0 45.495h4.909l7.616.007 4.768.006 4.624-8.426 4.987 8.432 5.36.007 8.127.005 4.609.007-2.658-4.592Zm-8.205-28.255 5.218 9.024-4.066 7.033-9.287-16.066 8.135.01Zm-18.95 28.23-7.62-.008 8.635-14.93 3.813 6.59-4.827 8.349Zm14.426.013L13.266 12.665l8.13.009 11.591 20.052 2.198 3.798 2.55 4.413-8.122-.008ZM60.464 43V13.024h13.489c1.912 0 3.64.414 5.181 1.242 1.57.828 2.798 1.97 3.683 3.426.885 1.427 1.328 3.055 1.328 4.882 0 1.884-.443 3.582-1.328 5.096a9.561 9.561 0 0 1-3.64 3.511c-1.542.857-3.283 1.285-5.224 1.285H67.4V43h-6.937Zm16.615 0-7.623-13.532 7.451-1.07L85.388 43h-8.308ZM67.4 26.899h5.91c.742 0 1.384-.157 1.926-.471.571-.343 1-.814 1.285-1.413.314-.6.471-1.285.471-2.056 0-.77-.171-1.442-.514-2.012a3.332 3.332 0 0 0-1.498-1.37c-.628-.315-1.4-.472-2.313-.472h-5.267V26.9ZM90.531 43V13.024h20.898v6.21H97.597V36.79h14.26V43H90.531Zm3.426-12.29V24.8h15.545v5.91H93.957Zm34.11 12.718c-1.97 0-3.755-.228-5.353-.685-1.57-.485-2.969-1.17-4.197-2.055a17.574 17.574 0 0 1-3.297-3.212l4.411-5.01c1.427 1.912 2.854 3.197 4.282 3.854 1.456.656 2.955.985 4.496.985.771 0 1.47-.1 2.098-.3.629-.2 1.114-.486 1.456-.857.343-.4.514-.885.514-1.456a2.04 2.04 0 0 0-.342-1.156 2.844 2.844 0 0 0-.857-.899 6.396 6.396 0 0 0-1.327-.685 9.962 9.962 0 0 0-1.627-.557 17.544 17.544 0 0 0-1.756-.428c-1.656-.371-3.098-.828-4.325-1.37-1.228-.543-2.256-1.2-3.083-1.97a7.982 7.982 0 0 1-1.799-2.698c-.4-1.028-.6-2.17-.6-3.426 0-1.342.3-2.57.9-3.683a9.382 9.382 0 0 1 2.483-2.912c1.057-.827 2.27-1.455 3.64-1.884a13.457 13.457 0 0 1 4.283-.685c1.969 0 3.654.214 5.053.643 1.427.4 2.64.984 3.64 1.755a11.042 11.042 0 0 1 2.612 2.784l-4.497 4.325a9.168 9.168 0 0 0-1.969-1.842 8.157 8.157 0 0 0-2.227-1.113 7.534 7.534 0 0 0-2.398-.385c-.857 0-1.599.114-2.227.342-.6.2-1.071.5-1.413.9-.343.37-.514.827-.514 1.37 0 .485.143.899.428 1.242.286.342.671.656 1.156.942.486.257 1.042.485 1.67.685.628.171 1.285.314 1.97.428 1.57.314 2.984.728 4.24 1.242 1.284.514 2.383 1.142 3.297 1.884.942.742 1.656 1.627 2.141 2.655.514 1 .771 2.17.771 3.512 0 2.084-.514 3.854-1.542 5.31-.999 1.427-2.383 2.526-4.153 3.297-1.742.742-3.755 1.113-6.038 1.113ZM144.673 43v-6.124h5.053V19.148h-5.053v-6.124h17.428v6.124h-5.096v17.728h5.096V43h-17.428Zm24.352 0V13.024h12.547c2.198 0 4.211.371 6.038 1.114 1.827.713 3.397 1.741 4.711 3.083a13.689 13.689 0 0 1 3.083 4.753c.714 1.827 1.07 3.84 1.07 6.038 0 2.198-.356 4.225-1.07 6.08a13.688 13.688 0 0 1-3.083 4.754c-1.314 1.313-2.884 2.341-4.711 3.083-1.827.714-3.84 1.071-6.038 1.071h-12.547Zm7.28-4.967-.985-1.456h6.038c1.199 0 2.27-.2 3.212-.6a7.059 7.059 0 0 0 2.398-1.756c.685-.742 1.213-1.641 1.584-2.697.371-1.057.557-2.227.557-3.512 0-1.285-.186-2.455-.557-3.511-.371-1.057-.899-1.956-1.584-2.698a6.597 6.597 0 0 0-2.398-1.713c-.942-.428-2.013-.642-3.212-.642h-6.166l1.113-1.37v19.955ZM202.104 43V13.024h20.897v6.21H209.17V36.79h14.259V43h-21.325Zm3.426-12.29V24.8h15.544v5.91H205.53ZM229.704 43V13.024h6.509l15.716 21.411-1.413-.214a53.876 53.876 0 0 1-.343-2.697c-.085-.857-.171-1.699-.257-2.527l-.171-2.526c-.028-.857-.057-1.785-.086-2.784V13.024h7.066V43h-6.595l-16.4-22.096 2.183.3c.143 1.37.257 2.54.343 3.51.114.943.2 1.785.257 2.527.086.743.143 1.413.171 2.013.029.6.043 1.199.043 1.799.029.57.043 1.213.043 1.927V43h-7.066Zm41.051 0V19.448h-8.907v-6.424h25.308v6.424h-9.121V43h-7.28Z" fill="#fff"/></svg>