<svg width="41" height="34" fill="none" xmlns="http://www.w3.org/2000/svg"><path d="m38.442 29.057-4.318-7.467 3.617-6.246 2.111-3.653L37.9 8.313l-2.52-4.368-2.138-3.69-4.229-.009-7.235-.018-4.1-.008-7.23-.017-4.242-.01 2.154 3.724 4.66 8.06-9.855 17.047-2.36 4.082h4.364l6.77.005 4.238.006 4.11-7.49 4.433 7.496 4.766.005 7.223.005 4.097.006-2.363-4.082ZM31.149 3.942l4.638 8.02-3.614 6.252-8.256-14.28 7.232.008ZM14.305 29.036l-6.775-.008 7.677-13.272 3.389 5.859-4.291 7.42Zm12.822.01L12.597 3.923l7.226.008 10.304 17.824 1.954 3.376 2.266 3.923-7.22-.008Z" fill="#199976"/></svg>