<svg width="139" height="32" fill="none" xmlns="http://www.w3.org/2000/svg"><path d="M3.263 25.482.32 23.774v-.771c0-4.662.01-9.324-.014-13.985-.004-.608.178-.934.72-1.242C5.094 5.462 9.145 3.114 13.187.75c.476-.278.83-.266 1.29.001 4.097 2.386 8.205 4.755 12.313 7.124.32.185.57.364.57.8-.013 3.835-.008 7.67-.008 11.596-.236-.093-.42-.144-.58-.233-.928-.513-1.842-1.052-2.778-1.548-.517-.273-.753-.603-.737-1.238.051-2.034.01-4.07.028-6.106.004-.431-.122-.69-.512-.914-2.965-1.693-5.916-3.41-8.943-5.161l-9.395 5.44c-.01.206-.03.408-.03.609-.001 3.186.016 6.373-.015 9.559-.006.58.167.9.67 1.186 2.918 1.655 5.816 3.346 8.766 5.05.568-.328 1.142-.626 1.678-.98.496-.33.906-.373 1.447-.024 1.033.666 2.129 1.237 3.32 1.917-.368.23-.606.384-.85.527-1.655.963-3.321 1.906-4.96 2.895-.472.285-.822.262-1.29-.013-3.274-1.924-6.566-3.82-9.909-5.755Z" fill="#199976"/><path d="M22.766 25.198c-2.813-1.617-5.56-3.22-8.328-4.782-.524-.295-.78-.6-.742-1.232.059-.97.044-1.946.003-2.918-.023-.561.11-.92.659-1.184.735-.355 1.415-.826 2.238-1.318l-2.786-1.637-2.913 1.683v8.177c-.232-.029-.417-.002-.546-.075-1.152-.652-2.293-1.326-3.443-1.984-.29-.166-.394-.394-.393-.723.01-2.447.01-4.895.001-7.342-.001-.336.122-.55.407-.714 2.142-1.234 4.28-2.473 6.418-3.715.309-.18.583-.19.907 0a847.821 847.821 0 0 0 6.426 3.702c.3.172.378.401.374.726-.014 1.18-.024 2.36.003 3.538.01.429-.183.62-.528.808-.842.461-1.66.967-2.64 1.546l9.522 5.52c-.629.372-1.099.654-1.572.93-.61.357-1.251.669-1.824 1.077-.452.322-.803.26-1.243-.083ZM43.24 23.207c0-1.147.007-2.21-.002-3.272-.009-1.009-.316-1.325-1.318-1.335-1.325-.012-2.65-.003-4.072-.003v6.153h-3.251c-.19-.61-.273-14.75-.089-16.65.209-.023.432-.069.655-.07 2.184-.005 4.368-.045 6.55.012 1.516.039 2.978.314 4.123 1.487 1.922 1.968 1.553 5.463-.757 6.93-.16.102-.31.223-.45.325.035.088.041.137.057.14 1.356.276 1.892 1.214 1.915 2.486.032 1.71-.001 3.422-.01 5.133 0 .05-.047.102-.095.203H43.24v-1.539Zm-4.109-12.17-1.272.02v4.51c1.333 0 2.62.006 3.908-.008.199-.002.402-.084.595-.153.857-.306 1.488-1.23 1.406-2.135-.117-1.298-.715-1.974-1.656-2.092-.928-.117-1.872-.1-2.98-.142ZM49.072 14.736V8.075h10.813v2.946H52.52v3.865h6.674v3.01h-6.693v3.886h7.5v2.968H49.194s-.028-.012-.045-.032c-.018-.021-.037-.052-.037-.079-.014-3.271-.026-6.543-.038-9.903ZM73.654 16.274c2.244 2.399 1.565 6.22-1.424 7.624-2.567 1.207-5.221 1.145-7.721-.277-1.635-.93-2.378-2.474-2.496-4.326-.023-.352-.004-.707-.004-1.121h3.22c.012.216.03.442.035.668.03 1.529.802 2.515 2.3 2.794 1.055.195 2.122.184 3.105-.35.97-.529 1.347-1.697.773-2.542a2.16 2.16 0 0 0-.93-.763c-.733-.29-1.514-.462-2.272-.694-1.094-.335-2.22-.598-3.27-1.042-2.032-.858-2.65-2.441-2.59-4.299.082-2.574 1.775-4.091 4.173-4.524 1.504-.271 3.05-.248 4.543.265 2.02.694 3.207 2.193 3.378 4.308.037.462.083.923.13 1.456h-3.327c0-.318.016-.633-.003-.945-.074-1.173-.61-1.828-1.735-2.163-.938-.28-1.853-.217-2.767.117-.684.25-1.074.738-1.138 1.438-.064.703.25 1.287.86 1.627.456.253.965.436 1.472.566 1.424.364 2.883.615 4.215 1.268.498.245.95.582 1.473.915ZM79.34 7.981c.315.011.546.023.834.036V24.75h-3.191V7.98h2.358ZM90.04 8.058c1.623.1 3.03.536 4.176 1.626 1.281 1.218 1.712 2.79 1.77 4.478.05 1.473.05 2.95 0 4.423-.068 1.954-.625 3.706-2.286 4.942-1.083.806-2.344 1.144-3.64 1.183-2.503.075-5.011.02-7.518.017-.084 0-.167-.036-.367-.082V21.901h2.062c.214-.671.289-9.386.104-10.988h-2.116V8.06c.132-.03.267-.09.403-.09 2.3-.006 4.6-.006 6.9-.002.144 0 .288.048.512.09Zm-2.374 10.593v3.004c.877 0 1.675.097 2.44-.02 1.471-.228 2.332-1.09 2.49-2.563.144-1.337.128-2.694.14-4.043a7.811 7.811 0 0 0-.168-1.657c-.228-1.09-.886-1.869-1.962-2.177-.928-.266-1.894-.3-2.94-.159v7.615ZM98.023 17.203v-9.14h10.784c.045.953.016 1.91.017 2.962h-7.558v3.84h6.806v2.99h-6.787v3.883h7.468c.281.644.317 2.12.089 3.012H98.023v-7.547ZM110.991 13.147l.001-5.07h6.072c1.163 4.778 2.166 9.616 3.334 14.413l.199-.03V8.054c1.112-.03 2.156-.01 3.266-.012V24.75h-6.092l-3.204-14.022c-.145-.053-.176-.076-.197-.069-.023.009-.041.042-.052.068-.023.053-.05.106-.057.161a1.949 1.949 0 0 0-.014.265c-.008 4.485-.015 8.97-.024 13.454 0 .027-.024.053-.065.14h-3.167v-11.6ZM130.697 18.632v-7.54c-1.623-.092-3.202-.003-4.834-.058V8.092h12.832v2.932h-4.72c-.007 1.24-.016 2.377-.019 3.514-.004 1.12-.001 2.24-.001 3.36v6.852h-3.244c-.031-.992-.009-2.008-.013-3.023-.004-1.002-.001-2.004-.001-3.095Z" fill="#199976"/></svg>