<svg width="232" height="52" fill="none" xmlns="http://www.w3.org/2000/svg"><path d="M4.943 42.022.023 39.17v-1.288c0-7.789.019-15.578-.023-23.366-.005-1.016.298-1.56 1.202-2.074A1945.1 1945.1 0 0 0 21.525.702c.795-.465 1.386-.446 2.154.001 6.847 3.986 13.71 7.944 20.574 11.902.535.309.953.608.95 1.338-.02 6.406-.011 12.812-.011 19.373-.395-.156-.7-.24-.97-.39-1.55-.857-3.077-1.757-4.641-2.585-.864-.457-1.258-1.008-1.231-2.069.085-3.399.016-6.801.047-10.203.006-.72-.204-1.153-.855-1.525-4.954-2.829-9.885-5.698-14.943-8.624L6.903 17.008c-.018.346-.05.682-.05 1.018-.003 5.324.026 10.648-.027 15.972-.009.967.28 1.503 1.121 1.98 4.875 2.767 9.717 5.591 14.646 8.44.949-.55 1.907-1.048 2.802-1.64.83-.549 1.515-.622 2.42-.039 1.726 1.114 3.555 2.067 5.547 3.204-.617.382-1.014.641-1.423.88-2.763 1.608-5.547 3.184-8.284 4.837-.79.476-1.375.437-2.157-.022-5.47-3.215-10.97-6.381-16.555-9.616Z" fill="#fff"/><path d="M37.528 41.548c-4.7-2.702-9.289-5.38-13.915-7.99-.875-.493-1.304-1.004-1.24-2.058.098-1.62.073-3.252.006-4.875-.039-.938.183-1.537 1.1-1.979 1.23-.593 2.365-1.38 3.74-2.2l-4.655-2.737-4.866 2.812v13.662c-.39-.048-.698-.003-.913-.125-1.926-1.09-3.832-2.216-5.753-3.316-.484-.277-.659-.657-.656-1.207.015-4.09.017-8.178.002-12.267-.002-.561.202-.919.679-1.193 3.579-2.061 7.152-4.131 10.723-6.207.517-.3.975-.316 1.515-.001 3.569 2.08 7.15 4.139 10.737 6.187.502.287.631.67.625 1.213-.024 1.97-.04 3.942.006 5.911.017.716-.307 1.035-.884 1.35-1.406.77-2.771 1.616-4.41 2.583l15.909 9.222c-1.05.623-1.836 1.093-2.626 1.555-1.02.596-2.091 1.116-3.048 1.799-.755.538-1.34.435-2.076-.139ZM71.734 38.222c0-1.918.012-3.692-.003-5.467-.015-1.686-.528-2.215-2.202-2.23-2.213-.021-4.426-.005-6.803-.005v10.278h-5.432c-.318-1.017-.456-24.643-.149-27.817.349-.039.722-.115 1.095-.116 3.648-.009 7.298-.076 10.943.018 2.533.066 4.975.525 6.889 2.485 3.21 3.289 2.595 9.128-1.266 11.58-.268.17-.516.372-.75.542.057.148.068.23.094.235 2.266.46 3.16 2.028 3.2 4.153.053 2.857-.002 5.716-.018 8.575 0 .085-.077.17-.158.34h-5.44v-2.571ZM64.87 17.888l-2.124.034v7.534c2.226 0 4.377.011 6.527-.012.334-.004.673-.142.996-.257 1.43-.511 2.485-2.055 2.349-3.567-.196-2.168-1.195-3.297-2.767-3.495-1.55-.196-3.128-.167-4.98-.236ZM81.48 24.068v-11.13h18.065v4.922H87.24v6.46H98.39v5.027H87.208v6.494H99.74v4.957H81.68s-.047-.018-.075-.052c-.03-.036-.061-.087-.061-.132-.024-5.466-.045-10.932-.066-16.546ZM122.55 26.638c3.748 4.008 2.615 10.39-2.379 12.738-4.289 2.016-8.724 1.913-12.902-.464-2.731-1.554-3.971-4.133-4.17-7.227-.037-.588-.005-1.18-.005-1.873h5.38c.019.36.05.739.058 1.117.05 2.553 1.339 4.2 3.844 4.667 1.76.327 3.543.308 5.185-.585 1.623-.883 2.252-2.834 1.293-4.247-.365-.537-.955-1.037-1.554-1.274-1.225-.486-2.53-.771-3.796-1.16-1.828-.56-3.709-1-5.463-1.74-3.396-1.434-4.428-4.08-4.329-7.183.137-4.3 2.966-6.836 6.973-7.559 2.513-.453 5.095-.414 7.591.443 3.376 1.16 5.359 3.663 5.643 7.198.062.771.138 1.541.219 2.431h-5.561c0-.53.028-1.056-.005-1.578-.123-1.96-1.019-3.054-2.898-3.613-1.566-.467-3.096-.363-4.623.195-1.142.417-1.794 1.233-1.901 2.402-.108 1.174.418 2.15 1.438 2.719.76.423 1.611.729 2.458.945 2.379.608 4.816 1.028 7.042 2.12.832.408 1.588.97 2.462 1.528ZM132.05 12.783c.526.018.911.037 1.394.06V40.8h-5.333V12.783h3.939ZM149.926 12.91c2.712.169 5.062.897 6.977 2.718 2.141 2.035 2.86 4.66 2.957 7.481.084 2.46.085 4.929 0 7.39-.112 3.264-1.044 6.191-3.819 8.256-1.81 1.347-3.916 1.912-6.08 1.977-4.184.126-8.374.035-12.562.028-.139 0-.279-.06-.614-.136V36.04h3.446c.358-1.123.482-15.682.173-18.36h-3.534v-4.764c.219-.051.446-.15.673-.15 3.843-.011 7.686-.011 11.528-.004.241 0 .481.08.855.149Zm-3.966 17.698v5.02c1.465 0 2.798.162 4.076-.035 2.459-.38 3.897-1.82 4.162-4.28.24-2.235.213-4.502.233-6.755a13.018 13.018 0 0 0-.281-2.77c-.381-1.822-1.48-3.121-3.277-3.636-1.551-.445-3.165-.502-4.913-.266v12.722ZM163.265 28.19V12.917h18.016c.075 1.594.027 3.194.028 4.95h-12.627v6.417h11.372v4.993h-11.339v6.489h12.477c.469 1.076.529 3.543.148 5.032h-18.075v-12.61ZM184.931 21.414v-8.47h10.146c1.942 7.982 3.619 16.064 5.571 24.079l.332-.05V12.905c1.858-.051 3.601-.016 5.457-.02v27.912h-10.178l-5.353-23.426c-.243-.088-.295-.127-.329-.115-.039.014-.069.07-.089.114-.038.087-.082.176-.095.269-.02.145-.022.294-.022.442-.013 7.493-.026 14.985-.041 22.478 0 .045-.039.09-.107.235h-5.292V21.414ZM217.855 30.578V17.979c-2.712-.153-5.35-.004-8.077-.096v-4.916h21.44v4.9h-7.886c-.012 2.071-.027 3.97-.033 5.87-.005 1.872-.001 3.743-.001 5.614v11.447h-5.42c-.051-1.657-.015-3.354-.021-5.05-.007-1.673-.002-3.348-.002-5.17Z" fill="#fff"/></svg>